<?xml version="1.0" encoding="UTF-8" standalone="no"?>
<!-- Created with Inkscape (http://www.inkscape.org/) -->

<svg
   width="210mm"
   height="297mm"
   viewBox="0 0 210 297"
   version="1.1"
   id="svg5"
   inkscape:version="1.1.1 (1:1.1+202109281949+c3084ef5ed)"
   sodipodi:docname="LOGO.svg"
   xmlns:inkscape="http://www.inkscape.org/namespaces/inkscape"
   xmlns:sodipodi="http://sodipodi.sourceforge.net/DTD/sodipodi-0.dtd"
   xmlns="http://www.w3.org/2000/svg"
   xmlns:svg="http://www.w3.org/2000/svg">
  <sodipodi:namedview
     id="namedview7"
     pagecolor="#505050"
     bordercolor="#eeeeee"
     borderopacity="1"
     inkscape:pageshadow="0"
     inkscape:pageopacity="0"
     inkscape:pagecheckerboard="0"
     inkscape:document-units="px"
     showgrid="false"
     showborder="false"
     inkscape:lockguides="true"
     inkscape:zoom="0.70710678"
     inkscape:cx="149.90664"
     inkscape:cy="473.05444"
     inkscape:window-width="1862"
     inkscape:window-height="1016"
     inkscape:window-x="1424"
     inkscape:window-y="27"
     inkscape:window-maximized="1"
     inkscape:current-layer="path1196" />
  <defs
     id="defs2" />
  <g
     inkscape:label="Layer 1"
     inkscape:groupmode="layer"
     id="layer1">
    <g
       id="path1196">
      <path
         id="path2866"
         style="color:#000000;fill:#000000;fill-opacity:0.509177;stroke-width:2.90063;stroke-miterlimit:4;stroke-dasharray:none"
         d="m 107.6594,68.265997 a 105.95758,128.89298 0 0 0 -53.350745,17.55345 105.95758,128.89298 0 0 0 -5.2e-4,0.03617 105.95758,128.89298 0 0 0 4.80488,38.248833 H 156.1629 A 105.95758,128.89298 0 0 0 161.00395,85.805496 105.95758,128.89298 0 0 0 107.6594,68.265997 Z M 66.739935,146.34082 a 105.95758,128.89298 0 0 0 40.742725,51.26509 105.95758,128.89298 0 0 0 40.99285,-51.26509 z" />
      <path
         id="path2861"
         style="color:#000000;fill:#ffffff;fill-opacity:1;stroke:#666666;stroke-width:3.59833;stroke-miterlimit:4;stroke-dasharray:none"
         d="m 107.64854,69.119691 c -19.482965,0.0071 -38.599365,6.314466 -55.328395,18.183386 l -1.40198,0.996323 -0.0413,1.792655 v 0.03927 c 8.4e-4,11.618075 1.25814,23.023925 3.65766,33.973125 h 7.11429 c -2.38685,-10.35995 -3.70462,-21.17961 -3.83232,-32.229044 15.27923,-10.41993 32.40445,-15.90543 49.834155,-15.912206 h 0.002 c 17.42545,0.004 34.5447,5.48417 49.82229,15.896704 -0.14417,11.058026 -1.47998,21.882866 -3.88556,32.244546 h 7.11585 c 2.42035,-10.96094 3.69586,-22.38272 3.71088,-34.020149 l 0.002,-1.769401 -1.44332,-1.025261 C 146.24633,75.427003 127.13045,69.123665 107.65061,69.119691 Z M 61.217795,146.34082 c 9.3092,24.02342 24.55296,44.54744 44.295995,58.34528 l 1.9513,1.36322 1.95699,-1.35548 c 19.846,-13.74887 35.18325,-34.28367 44.55904,-58.35302 h -7.48327 c -8.65466,20.99283 -22.07364,38.90579 -39.01519,51.26509 C 90.627855,185.20502 77.290535,167.29763 68.696925,146.34082 Z" />
      <text
         xml:space="preserve"
         style="font-style:normal;font-weight:normal;font-size:10.5833px;line-height:1.25;font-family:sans-serif;fill:#000000;fill-opacity:1;stroke:none;stroke-width:0.264583"
         x="-136.66139"
         y="97.19352"
         id="text16666"><tspan
           sodipodi:role="line"
           id="tspan16664"
           style="stroke-width:0.264583"
           x="-136.66139"
           y="97.19352" /></text>
      <text
         xml:space="preserve"
         style="font-style:normal;font-weight:normal;font-size:10.5833px;line-height:1.25;font-family:sans-serif;fill:#000000;fill-opacity:1;stroke:none;stroke-width:0.264583"
         x="-75.749184"
         y="92.768997"
         id="text19760"><tspan
           sodipodi:role="line"
           id="tspan19758"
           style="stroke-width:0.264583"
           x="-75.749184"
           y="92.768997" /></text>
      <text
         xml:space="preserve"
         style="font-style:normal;font-weight:normal;font-size:10.5833px;line-height:1.25;font-family:sans-serif;fill:#000000;fill-opacity:1;stroke:none;stroke-width:0.264583"
         x="-63.239033"
         y="124.48588"
         id="text21678"><tspan
           sodipodi:role="line"
           id="tspan21676"
           style="stroke-width:0.264583"
           x="-63.239033"
           y="124.48588" /></text>
      <text
         xml:space="preserve"
         style="font-style:normal;font-weight:normal;font-size:10.5833px;line-height:1.25;font-family:sans-serif;fill:#000000;fill-opacity:1;stroke:none;stroke-width:0.264583"
         x="-60.338921"
         y="138.76884"
         id="text27426"><tspan
           sodipodi:role="line"
           id="tspan27424"
           style="stroke-width:0.264583"
           x="-60.338921"
           y="138.76884" /></text>
      <text
         xml:space="preserve"
         style="font-style:normal;font-weight:normal;font-size:10.5833px;line-height:1.25;font-family:sans-serif;fill:#000000;fill-opacity:1;stroke:none;stroke-width:0.264583"
         x="-23.946568"
         y="173.44168"
         id="text29542"><tspan
           sodipodi:role="line"
           id="tspan29540"
           style="stroke-width:0.264583"
           x="-23.946568"
           y="173.44168" /></text>
      <text
         xml:space="preserve"
         style="font-style:normal;font-weight:normal;font-size:10.5833px;line-height:1.25;font-family:sans-serif;fill:#000000;fill-opacity:1;stroke:none;stroke-width:0.264583"
         x="-79.485977"
         y="170.52171"
         id="text34276"><tspan
           sodipodi:role="line"
           id="tspan34274"
           style="stroke-width:0.264583"
           x="-79.485977"
           y="170.52171" /></text>
      <rect
         style="fill:none;fill-opacity:0.483485;stroke:#666693;stroke-width:0;stroke-miterlimit:4;stroke-dasharray:none;stroke-opacity:1"
         id="rect51052"
         width="128.85715"
         height="22.236418"
         x="43.333645"
         y="124.10465" />
      <text
         xml:space="preserve"
         style="font-style:normal;font-weight:normal;font-size:17.8588px;line-height:1.25;font-family:sans-serif;fill:#000000;fill-opacity:0.971943;stroke:none;stroke-width:0.446352;stroke-miterlimit:4;stroke-dasharray:none"
         x="46.056076"
         y="146.77943"
         id="text40824"
         transform="scale(1.036923,0.96439176)"><tspan
           sodipodi:role="line"
           id="tspan40822"
           style="font-style:normal;font-variant:normal;font-weight:bold;font-stretch:normal;font-size:17.8588px;font-family:C059;-inkscape-font-specification:'C059, Bold';font-variant-ligatures:normal;font-variant-caps:normal;font-variant-numeric:normal;font-variant-east-asian:normal;fill:#000000;fill-opacity:0.971943;stroke-width:0.446352;stroke-miterlimit:4;stroke-dasharray:none"
           x="46.056076"
           y="146.77943">STAR TEAM</tspan></text>
      <rect
         style="fill:none;fill-opacity:0.483485;stroke:#666693;stroke-width:0;stroke-miterlimit:4;stroke-dasharray:none;stroke-opacity:1"
         id="rect54304"
         width="91.287354"
         height="91.287354"
         x="-279.27347"
         y="-18.586494" />
      <rect
         style="fill:none;fill-opacity:0.483485;stroke:#666693;stroke-width:0;stroke-miterlimit:4;stroke-dasharray:none;stroke-opacity:1"
         id="rect54328"
         width="28.744692"
         height="27.650587"
         x="-226.37346"
         y="5.8514032" />
      <path
         style="fill:#000000;fill-opacity:0.483485;stroke:#666693;stroke-width:0;stroke-miterlimit:4;stroke-dasharray:none;stroke-opacity:1"
         d="m 52.198445,120.91653 c -1.06468,-5.5786 -1.55312,-8.83077 -2.13592,-14.22135 -0.4708,-4.35476 -1.02277,-15.139633 -0.89918,-17.569148 l 0.0862,-1.69414 2.64584,-1.855626 c 14.04763,-9.852152 29.66329,-15.784676 46.566658,-17.691081 3.786067,-0.427003 14.801947,-0.421839 18.520837,0.0087 17.78033,2.058333 33.15882,8.124205 48.53386,19.143611 l 0.62878,0.450654 -0.16369,6.428513 c -0.24666,9.687237 -1.09327,17.581727 -2.86,26.669137 -0.43851,2.25557 -0.862,4.36893 -0.94108,4.69635 -0.14312,0.59259 -0.16784,0.59532 -5.40676,0.59532 -2.89464,0 -5.26299,-0.0511 -5.26299,-0.11355 0,-0.0624 0.41181,-1.99721 0.91513,-4.29948 1.84367,-8.43322 3.30446,-20.4227 3.31559,-27.212847 l 0.003,-1.595659 -2.70123,-1.685954 C 142.33825,84.288621 129.82022,79.810672 117.37973,78.212488 113.1321,77.666809 100.9064,77.744912 96.874533,78.343481 84.135945,80.234649 72.696185,84.443577 61.949535,91.193129 l -2.38125,1.495571 0.0837,3.299071 c 0.21724,8.567229 1.40218,17.364949 3.92776,29.162089 l 0.15572,0.72761 h -5.29511 -5.29512 z m 7.23674,1.19063 c -4.5e-4,-0.18191 -0.24413,-1.58089 -0.54155,-3.10886 -1.4385,-7.39037 -2.31066,-15.15178 -2.54558,-22.653093 l -0.16669,-5.322885 1.95804,-1.315551 c 8.21966,-5.522555 19.01697,-10.363736 28.41638,-12.741026 23.861565,-6.03505 48.339645,-1.693058 70.166195,12.446289 l 2.52166,1.633542 -0.1773,4.120634 c -0.35101,8.15739 -1.30412,16.5586 -2.67371,23.56751 -0.35545,1.81901 -0.64673,3.39659 -0.64729,3.50573 -5.3e-4,0.10914 0.81951,0.19844 1.82238,0.19844 h 1.8234 l 0.55818,-2.97657 c 1.63193,-8.70245 2.38808,-15.7862 2.57716,-24.143228 l 0.14367,-6.35 -3.13218,-2.033506 c -14.55461,-9.449305 -28.97106,-14.531988 -44.93431,-15.842101 -4.74207,-0.389184 -13.6732,-0.187227 -18.125985,0.409874 -14.75629,1.978766 -27.51937,6.821254 -40.58879,15.399956 l -3.41484,2.241481 0.17472,5.468398 c 0.27534,8.617406 1.01807,15.800126 2.47379,23.923086 l 0.69938,3.90261 h 1.80704 c 1.26967,0 1.8068,-0.0984 1.80623,-0.33073 z"
         id="path57986" />
      <path
         style="fill:#000000;fill-opacity:0.483485;stroke:#666693;stroke-width:0;stroke-miterlimit:4;stroke-dasharray:none;stroke-opacity:1"
         d="m 104.25298,205.82344 c -6.276827,-4.50267 -10.811465,-8.39522 -16.118725,-13.83639 -9.39917,-9.63633 -16.89109,-20.38038 -23.34129,-33.47339 -2.21667,-4.49952 -5.89781,-13.03348 -5.88898,-13.65234 0.002,-0.10914 2.47338,-0.198 5.49294,-0.19748 l 5.49011,0.001 0.90399,2.31415 c 1.33886,3.42736 6.02139,12.64284 8.53659,16.80046 5.18182,8.56554 10.26714,15.04686 17.39723,22.17303 4.464505,4.46206 10.205645,9.51325 10.808015,9.50916 0.51218,-0.003 7.78154,-6.35008 11.18193,-9.76252 10.42862,-10.46562 18.87631,-23.06085 25.1275,-37.46436 l 1.4928,-3.43958 5.4692,-0.0715 c 3.00806,-0.0393 5.46919,0.0297 5.46919,0.15342 0,0.72642 -3.36034,8.46467 -5.93901,13.67643 -10.09789,20.40892 -23.00674,35.63194 -40.76569,48.07373 l -2.12242,1.48695 z m 5.4579,-3.35196 c 13.03053,-9.18287 25.22781,-22.94238 34.00618,-38.36172 1.91857,-3.37 5.98071,-11.59183 7.09166,-14.35365 l 0.66519,-1.65364 h -1.9805 -1.9805 l -0.56938,1.38906 c -0.94513,2.30577 -4.58143,9.54978 -6.44812,12.84558 -7.98261,14.09396 -18.9369,26.73949 -31.02051,35.80977 l -1.9895,1.49338 -2.13044,-1.61023 c -9.786465,-7.39685 -19.317185,-17.74248 -26.427825,-28.68751 -3.74184,-5.75961 -8.1046,-13.84775 -10.56496,-19.58641 l -0.70898,-1.65364 h -1.97511 -1.97511 l 0.83548,2.05052 c 1.47338,3.61609 6.88263,14.10062 9.29648,18.01896 2.82772,4.59016 6.20803,9.35344 9.79036,13.79583 3.30004,4.09232 10.68983,11.67575 14.572148,14.954 3.166637,2.67392 8.860067,6.99918 9.220127,7.00447 0.12337,0.002 1.15536,-0.65283 2.29331,-1.45477 z"
         id="path58025" />
      <path
         style="fill:#ffffff;fill-opacity:0.483485;stroke:#666693;stroke-width:0;stroke-miterlimit:4;stroke-dasharray:none;stroke-opacity:1"
         d="M 103.98493,201.12566 C 89.843005,190.50881 78.464795,176.88484 69.424675,159.74413 c -1.51449,-2.87157 -5.22619,-10.85518 -5.22619,-11.24116 0,-0.0748 0.7189,-0.13592 1.59756,-0.13592 h 1.59755 l 0.96306,2.18281 c 4.6649,10.57316 11.66332,21.9442 18.636,30.27982 5.83242,6.97247 13.769065,14.47098 19.575505,18.49484 l 0.98886,0.68528 2.19938,-1.66271 c 7.8178,-5.91021 16.12016,-14.28346 22.20449,-22.39409 5.52362,-7.36318 11.13129,-16.94783 14.86256,-25.40314 l 0.96327,-2.18281 h 1.59755 c 0.87865,0 1.59755,0.049 1.59755,0.10885 0,0.29307 -2.04659,4.83054 -3.68742,8.17535 -7.39891,15.08257 -17.48177,28.43747 -29.30469,38.8145 -2.88402,2.53132 -8.03658,6.57464 -9.90374,7.77166 l -0.6948,0.44543 z"
         id="path58101" />
      <path
         style="fill:#ffffff;fill-opacity:0.483485;stroke:#666693;stroke-width:0;stroke-miterlimit:4;stroke-dasharray:none;stroke-opacity:1"
         d="m 55.912855,121.31341 c -1.00657,-5.66489 -1.79815,-10.79252 -2.13418,-13.82448 -0.53246,-4.80449 -1.01984,-13.442209 -0.91065,-16.139588 l 0.0857,-2.116667 2.24895,-1.533435 c 18.29827,-12.476527 39.94887,-18.235652 60.909475,-16.202093 15.3383,1.48809 29.05244,6.484273 43.4025,15.811912 l 2.84427,1.848797 v 4.166174 c 0,7.77554 -1.32511,20.10171 -2.95208,27.46021 l -0.30713,1.38906 h -1.57408 -1.57408 l 0.18662,-0.7276 c 0.50558,-1.97126 1.78166,-9.95976 2.24936,-14.08144 0.48236,-4.2508 1.04631,-12.465845 1.05399,-15.35346 l 0.003,-1.190625 -2.84236,-1.84658 C 143.44859,80.428088 129.02149,75.462642 113.95341,74.294914 95.135945,72.836624 75.478725,78.041872 58.845655,88.887497 l -2.92777,1.909061 0.15946,5.303475 c 0.23229,7.725797 1.19731,16.355447 2.58607,23.125827 0.2794,1.36209 0.50799,2.58248 0.50799,2.71198 0,0.12951 -0.6988,0.23546 -1.55288,0.23546 -1.54424,0 -1.55373,-0.005 -1.70567,-0.85989 z"
         id="path58140" />
      <path
         sodipodi:type="star"
         style="fill:#ffffff;fill-opacity:0.483485;stroke:#666693;stroke-width:0;stroke-miterlimit:4;stroke-dasharray:none;stroke-opacity:1"
         id="path58201"
         inkscape:flatsided="false"
         sodipodi:sides="5"
         sodipodi:cx="-302.50989"
         sodipodi:cy="379.32904"
         sodipodi:r1="44.361401"
         sodipodi:r2="22.1807"
         sodipodi:arg1="0.92876024"
         sodipodi:arg2="1.5570788"
         inkscape:rounded="0"
         inkscape:randomized="0"
         d="m -275.94507,414.85712 -26.26056,-13.34947 -25.88449,14.06481 4.58114,-29.10049 -21.37518,-20.27134 29.09186,-4.63563 12.6739,-26.59319 13.39863,26.23552 29.20807,3.83585 -20.81105,20.85007 z"
         transform="matrix(0.13677794,0,0,0.13677794,149.04803,41.076837)"
         inkscape:transform-center-x="0.025719372"
         inkscape:transform-center-y="-0.5548945" />
      <path
         style="fill:#000000;fill-opacity:0.483485;stroke:#666693;stroke-width:0;stroke-miterlimit:4;stroke-dasharray:none;stroke-opacity:1"
         d="m 52.198445,120.91653 c -1.06468,-5.5786 -1.55312,-8.83077 -2.13592,-14.22135 -0.4708,-4.35476 -1.02277,-15.139633 -0.89918,-17.569148 l 0.0862,-1.69414 2.64584,-1.855626 c 14.04763,-9.852152 29.66329,-15.784676 46.566658,-17.691081 3.786067,-0.427003 14.801947,-0.421839 18.520837,0.0087 17.78033,2.058333 33.15882,8.124205 48.53386,19.143611 l 0.62878,0.450654 -0.16369,6.428513 c -0.24666,9.687237 -1.09327,17.581727 -2.86,26.669137 -0.43851,2.25557 -0.862,4.36893 -0.94108,4.69635 -0.14312,0.59259 -0.16784,0.59532 -5.40676,0.59532 -2.89464,0 -5.26299,-0.0511 -5.26299,-0.11355 0,-0.0624 0.41181,-1.99721 0.91513,-4.29948 1.84367,-8.43322 3.30446,-20.4227 3.31559,-27.212847 l 0.003,-1.595659 -2.70123,-1.685954 C 142.33825,84.288621 129.82022,79.810672 117.37973,78.212488 113.1321,77.666809 100.9064,77.744912 96.874533,78.343481 84.135945,80.234649 72.696185,84.443577 61.949535,91.193129 l -2.38125,1.495571 0.0837,3.299071 c 0.21724,8.567229 1.40218,17.364949 3.92776,29.162089 l 0.15572,0.72761 h -5.29511 -5.29512 z m 7.23674,1.19063 c -4.5e-4,-0.18191 -0.24413,-1.58089 -0.54155,-3.10886 -1.4385,-7.39037 -2.31066,-15.15178 -2.54558,-22.653093 l -0.16669,-5.322885 1.95804,-1.315551 c 8.21966,-5.522555 19.01697,-10.363736 28.41638,-12.741026 23.861565,-6.03505 48.339645,-1.693058 70.166195,12.446289 l 2.52166,1.633542 -0.1773,4.120634 c -0.35101,8.15739 -1.30412,16.5586 -2.67371,23.56751 -0.35545,1.81901 -0.64673,3.39659 -0.64729,3.50573 -5.3e-4,0.10914 0.81951,0.19844 1.82238,0.19844 h 1.8234 l 0.55818,-2.97657 c 1.63193,-8.70245 2.38808,-15.7862 2.57716,-24.143228 l 0.14367,-6.35 -3.13218,-2.033506 c -14.55461,-9.449305 -28.97106,-14.531988 -44.93431,-15.842101 -4.74207,-0.389184 -13.6732,-0.187227 -18.125985,0.409874 -14.75629,1.978766 -27.51937,6.821254 -40.58879,15.399956 l -3.41484,2.241481 0.17472,5.468398 c 0.27534,8.617406 1.01807,15.800126 2.47379,23.923086 l 0.69938,3.90261 h 1.80704 c 1.26967,0 1.8068,-0.0984 1.80623,-0.33073 z"
         id="path58481" />
      <path
         sodipodi:type="star"
         style="fill:#ffd5d5;fill-opacity:0.483485;stroke:#666693;stroke-width:0;stroke-miterlimit:4;stroke-dasharray:none;stroke-opacity:1"
         id="path58483"
         inkscape:flatsided="false"
         sodipodi:sides="5"
         sodipodi:cx="-302.50989"
         sodipodi:cy="379.32904"
         sodipodi:r1="44.361401"
         sodipodi:r2="22.1807"
         sodipodi:arg1="0.92876024"
         sodipodi:arg2="1.5570788"
         inkscape:rounded="0"
         inkscape:randomized="0"
         d="m -275.94507,414.85712 -26.26056,-13.34947 -25.88449,14.06481 4.58114,-29.10049 -21.37518,-20.27134 29.09186,-4.63563 12.6739,-26.59319 13.39863,26.23552 29.20807,3.83585 -20.81105,20.85007 z"
         transform="matrix(0.13677794,0,0,0.13677794,129.46072,47.751086)"
         inkscape:transform-center-x="0.025719372"
         inkscape:transform-center-y="-0.5548945" />
      <path
         id="path58485"
         style="fill:#ffffff;fill-opacity:0.483485;stroke:#666693;stroke-width:0;stroke-miterlimit:4;stroke-dasharray:none;stroke-opacity:1"
         inkscape:transform-center-x="0.025719372"
         inkscape:transform-center-y="-0.5548945"
         d="m 125.46503,93.374542 -1.73375,3.637502 -3.97908,0.634072 2.92385,2.772444 -0.62683,3.98063 3.54035,-1.92391 3.59203,1.82573 -0.73536,-3.96152 2.84634,-2.851505 -3.9951,-0.525032 z m -37.464375,0.19327 -1.73323,3.637502 -3.97908,0.634072 2.92333,2.772444 -0.62632,3.98063 3.54036,-1.92391 3.59203,1.82573 -0.73588,-3.96152 2.84686,-2.852021 -3.99511,-0.524515 z" />
      <path
         style="fill:#ffffff;fill-opacity:0.483485;stroke:#666693;stroke-width:0;stroke-miterlimit:4;stroke-dasharray:none;stroke-opacity:1"
         d="m 84.813605,103.96173 c 0.006,-0.22448 0.12436,-1.08167 0.26424,-1.90486 l 0.25432,-1.49671 -1.42555,-1.324472 -1.42555,-1.324465 1.48872,-0.233789 c 2.43968,-0.383124 2.26364,-0.26544 3.20703,-2.143839 l 0.85739,-1.707174 0.8519,1.71549 0.8519,1.715489 1.9429,0.230259 1.94289,0.230257 -1.32309,1.331982 c -0.80427,0.80967 -1.32309,1.487462 -1.32309,1.728512 0,0.21809 0.1338,1.04349 0.29732,1.83421 0.16353,0.79072 0.25649,1.4785 0.2066,1.5284 -0.0499,0.0499 -0.83767,-0.28442 -1.75061,-0.74293 l -1.6599,-0.83365 -1.63366,0.90273 c -1.5221,0.84107 -1.63299,0.87485 -1.62376,0.49456 z"
         id="path58793" />
      <path
         style="fill:#ffffff;fill-opacity:0.483485;stroke:#666693;stroke-width:0;stroke-miterlimit:4;stroke-dasharray:none;stroke-opacity:1"
         d="m 104.33205,97.332878 c 0.053,-0.180073 0.2017,-1.036177 0.33045,-1.902455 l 0.23408,-1.575051 -1.37141,-1.284645 c -0.75427,-0.706554 -1.3393,-1.312947 -1.30005,-1.347541 0.0393,-0.03459 0.87117,-0.178959 1.8487,-0.320813 l 1.77734,-0.257913 0.87522,-1.753634 0.87521,-1.753635 0.84588,1.684263 c 0.93193,1.855568 0.78178,1.758106 3.1099,2.018658 1.68446,0.188515 1.68186,0.17006 0.23023,1.635905 l -1.33587,1.348949 0.36511,1.870887 c 0.20081,1.028989 0.36539,1.891382 0.36573,1.91643 2.6e-4,0.02506 -0.78823,-0.346318 -1.75238,-0.825262 l -1.75301,-0.870802 -1.61281,0.872033 c -0.88705,0.479618 -1.66138,0.872032 -1.72074,0.872032 -0.0594,0 -0.0646,-0.147333 -0.0116,-0.327406 z"
         id="path58832" />
      <path
         style="fill:#ffffff;fill-opacity:0.483485;stroke:#666693;stroke-width:0;stroke-miterlimit:4;stroke-dasharray:none;stroke-opacity:1"
         d="m 122.22469,103.98241 c 0.002,-0.13296 0.13088,-0.99945 0.28685,-1.92554 l 0.28359,-1.6838 -1.42919,-1.324432 -1.42919,-1.324428 1.92976,-0.32049 c 1.06138,-0.176268 1.94948,-0.340191 1.97356,-0.364273 0.0241,-0.02408 0.39,-0.796732 0.81315,-1.717 0.86577,-1.88287 0.73928,-1.903458 1.87014,0.304392 l 0.73127,1.427697 1.89066,0.240946 1.89067,0.240943 -1.34547,1.354503 -1.34546,1.354512 0.3252,1.80616 c 0.17887,0.99338 0.29149,1.83987 0.25028,1.88108 -0.0412,0.0412 -0.80669,-0.30496 -1.70107,-0.76927 l -1.62614,-0.84419 -0.84404,0.47686 c -0.46422,0.26228 -1.22289,0.69089 -1.68594,0.95247 -0.56494,0.31915 -0.84082,0.39609 -0.83863,0.23386 z"
         id="path58871" />
      <path
         style="fill:#ffffff;fill-opacity:0.483485;stroke:#666693;stroke-width:0;stroke-miterlimit:4;stroke-dasharray:none;stroke-opacity:1"
         d="m 122.40851,103.61006 c 0,-0.12328 0.1014,-0.92549 0.22534,-1.78269 l 0.22534,-1.55853 -1.25432,-1.132082 c -0.68989,-0.622642 -1.25433,-1.19601 -1.25433,-1.274152 0,-0.07814 0.69993,-0.246206 1.5554,-0.373481 0.85547,-0.127273 1.67633,-0.306107 1.82412,-0.397409 0.14778,-0.0913 0.56337,-0.769454 0.92351,-1.507001 0.36015,-0.73755 0.73275,-1.351026 0.828,-1.363284 0.14,-0.01802 1.43908,2.146358 1.654,2.755694 0.0308,0.0873 0.81093,0.247377 1.73364,0.355716 0.92271,0.108339 1.71513,0.228722 1.76092,0.267517 0.0458,0.0388 -0.47376,0.636435 -1.15456,1.32808 l -1.23782,1.257542 0.25604,1.40317 c 0.44703,2.44972 0.52378,2.36535 -1.31994,1.45096 l -1.59568,-0.79137 -1.4677,0.79273 c -1.60376,0.86622 -1.70196,0.89903 -1.70196,0.56859 z"
         id="path58910" />
      <path
         style="fill:#ffffff;fill-opacity:0.483485;stroke:#666693;stroke-width:0;stroke-miterlimit:4;stroke-dasharray:none;stroke-opacity:1"
         d="m 122.59701,103.13263 c 8e-4,-0.28297 0.087,-1.04169 0.19154,-1.68604 l 0.19012,-1.17155 -1.23248,-1.152932 c -0.84864,-0.793852 -1.15593,-1.192034 -0.98667,-1.278489 0.13521,-0.06906 0.84889,-0.229092 1.58597,-0.355624 1.5019,-0.257831 1.61441,-0.349366 2.49809,-2.032405 l 0.61731,-1.175705 0.35423,0.520896 c 0.19483,0.286491 0.55869,0.914572 0.80857,1.395735 0.48572,0.935292 0.60861,1.006116 2.05229,1.182693 2.01761,0.246777 1.97932,0.160761 0.66286,1.48903 l -1.17508,1.185621 0.2396,1.61046 c 0.13178,0.88576 0.18092,1.66914 0.10921,1.74086 -0.0717,0.0717 -0.76515,-0.18369 -1.54095,-0.56758 l -1.41056,-0.69796 -1.36545,0.75374 c -0.75099,0.41456 -1.41822,0.75374 -1.48273,0.75374 -0.0645,0 -0.11664,-0.23152 -0.11587,-0.51449 z"
         id="path58949" />
      <path
         style="fill:#ffffff;fill-opacity:0.483485;stroke:#666693;stroke-width:0;stroke-miterlimit:4;stroke-dasharray:none;stroke-opacity:1"
         d="m 122.72544,103.31972 c -0.0436,-0.0772 0.004,-0.80065 0.10657,-1.60771 l 0.1859,-1.4674 -1.15467,-1.165022 -1.15467,-1.165024 1.47467,-0.316891 c 1.65804,-0.356296 1.96275,-0.595609 2.74291,-2.154282 0.27551,-0.550453 0.55611,-0.945648 0.62354,-0.878213 0.0674,0.06743 0.42323,0.644085 0.79066,1.281451 0.72318,1.25449 1.08544,1.458653 3.05352,1.720887 l 0.90497,0.120584 -1.10388,1.155395 -1.10387,1.155403 0.18551,1.541282 c 0.10203,0.8477 0.13348,1.59331 0.0699,1.65691 -0.0636,0.0636 -0.7202,-0.16303 -1.4591,-0.50362 l -1.34348,-0.61924 -1.26701,0.6929 c -1.35622,0.74169 -1.42974,0.76788 -1.55145,0.55259 z"
         id="path58988" />
      <path
         style="fill:#ffffff;fill-opacity:0.483485;stroke:#666693;stroke-width:0;stroke-miterlimit:4;stroke-dasharray:none;stroke-opacity:1"
         d="m 122.79908,102.75845 c 0.009,-0.28297 0.0743,-0.93544 0.14501,-1.44994 l 0.12863,-0.93544 -1.07683,-1.209452 -1.07682,-1.209456 1.30876,-0.307544 c 1.50503,-0.353663 1.8843,-0.63917 2.65357,-1.997538 0.30594,-0.540218 0.58421,-0.982215 0.61839,-0.982215 0.0342,0 0.36926,0.505584 0.74464,1.123521 0.79216,1.304031 1.00876,1.446639 2.66019,1.751431 l 1.22786,0.226618 -1.05937,1.144253 -1.05938,1.144252 0.10909,1.09351 c 0.06,0.60143 0.14747,1.28294 0.19438,1.51446 0.11146,0.55017 -0.1184,0.53191 -1.58777,-0.12614 l -1.19819,-0.53661 -1.15595,0.6354 c -1.39949,0.76925 -1.59735,0.78443 -1.57621,0.12089 z"
         id="path59027" />
      <path
         style="fill:#ffffff;fill-opacity:0.483485;stroke:#666693;stroke-width:0;stroke-miterlimit:4;stroke-dasharray:none;stroke-opacity:1"
         d="m 122.86573,103.0324 c -0.0493,-0.12858 -0.0151,-0.77923 0.0761,-1.44589 l 0.16577,-1.21211 -1.00433,-1.143942 c -0.55238,-0.629173 -1.00433,-1.186801 -1.00433,-1.239175 0,-0.05238 0.49718,-0.193043 1.10485,-0.312592 1.34132,-0.26389 1.88218,-0.665446 2.66972,-1.982126 l 0.603,-1.00815 0.80348,1.197711 c 0.72035,1.073785 0.90391,1.227534 1.77404,1.485937 0.5338,0.158522 1.16574,0.288221 1.40431,0.288221 0.23857,0 0.43377,0.06738 0.43377,0.149744 0,0.08236 -0.42333,0.624705 -0.94073,1.20521 l -0.94073,1.055472 0.12573,1.50758 c 0.0692,0.82916 0.0697,1.50757 0.001,1.50757 -0.0685,0 -0.67691,-0.25046 -1.35202,-0.55656 l -1.22747,-0.55657 -0.96671,0.50725 c -1.44089,0.75605 -1.62484,0.81494 -1.72558,0.55242 z"
         id="path59066" />
      <path
         style="fill:#ffffff;fill-opacity:0.483485;stroke:#666693;stroke-width:0;stroke-miterlimit:4;stroke-dasharray:none;stroke-opacity:1"
         d="m 122.89022,102.0101 c 0.0609,-0.59167 0.14619,-1.18874 0.18945,-1.32682 0.0433,-0.13808 -0.38856,-0.783212 -0.95959,-1.433622 -0.57103,-0.650415 -0.96373,-1.228623 -0.87267,-1.284905 0.0911,-0.05628 0.579,-0.194572 1.08429,-0.307311 1.24163,-0.277026 1.664,-0.587216 2.42992,-1.784545 0.35849,-0.56042 0.68818,-1.018943 0.73263,-1.018943 0.0444,0 0.42188,0.502222 0.83872,1.116047 0.66728,0.982618 0.87348,1.150372 1.72473,1.403165 0.53175,0.157914 1.16202,0.287118 1.40059,0.287118 0.23857,0 0.43377,0.05661 0.43377,0.125801 0,0.06919 -0.42674,0.616432 -0.9483,1.216093 l -0.9483,1.090282 0.13056,1.4967 c 0.0718,0.82318 0.0854,1.4967 0.0303,1.4967 -0.0551,0 -0.66031,-0.25128 -1.34481,-0.55839 l -1.24455,-0.55839 -1.10617,0.55839 c -1.60625,0.81083 -1.70405,0.77861 -1.57057,-0.51737 z"
         id="path59105" />
      <path
         style="fill:#ffffff;fill-opacity:0.483485;stroke:#666693;stroke-width:0;stroke-miterlimit:4;stroke-dasharray:none;stroke-opacity:1"
         d="m 122.91698,101.69171 0.10544,-1.39415 -0.97947,-1.130622 c -0.66985,-0.773216 -0.89995,-1.15973 -0.72791,-1.222693 0.13836,-0.05063 0.75457,-0.243279 1.36934,-0.428098 1.13007,-0.339738 1.25464,-0.453692 2.59048,-2.369799 0.23687,-0.339762 0.30113,-0.291042 1.02805,0.779394 0.81069,1.193787 1.17261,1.408742 2.79402,1.659429 0.43732,0.06762 0.79513,0.17956 0.79513,0.248767 0,0.06921 -0.42333,0.600795 -0.94073,1.1813 l -0.94073,1.055472 0.12573,1.50758 c 0.0692,0.82916 0.0697,1.50757 0.001,1.50757 -0.0685,0 -0.67671,-0.25036 -1.35157,-0.55636 l -1.22703,-0.55636 -1.10214,0.55636 c -1.63277,0.82422 -1.66419,0.80713 -1.53978,-0.83779 z"
         id="path59144" />
      <path
         style="fill:#ffffff;fill-opacity:0.483485;stroke:#666693;stroke-width:0;stroke-miterlimit:4;stroke-dasharray:none;stroke-opacity:1"
         d="m 122.93281,102.98653 c -0.0546,-0.0546 -0.0577,-0.68088 -0.007,-1.39164 l 0.0925,-1.29231 -0.86621,-1.013912 c -0.47642,-0.557655 -0.86622,-1.094513 -0.86622,-1.19302 0,-0.09851 0.56427,-0.342001 1.25394,-0.541097 1.28931,-0.372202 1.36059,-0.434932 2.73192,-2.404295 0.233,-0.334605 0.30366,-0.281519 1.05959,0.796139 0.70601,1.006491 0.93076,1.19053 1.75152,1.434269 0.51787,0.153792 1.13678,0.27962 1.37535,0.27962 0.23857,0 0.43376,0.06738 0.43376,0.149744 0,0.08236 -0.42332,0.624705 -0.94072,1.20521 l -0.94073,1.055472 0.12573,1.50758 c 0.0692,0.82916 0.0697,1.50757 0.001,1.50757 -0.0685,0 -0.67671,-0.25036 -1.35158,-0.55636 l -1.22702,-0.55636 -1.10214,0.55636 c -1.12108,0.56592 -1.34725,0.63374 -1.52396,0.45703 z"
         id="path59183" />
      <path
         style="fill:#ffffff;fill-opacity:0.483485;stroke:#666693;stroke-width:0;stroke-miterlimit:4;stroke-dasharray:none;stroke-opacity:1"
         d="m 122.90887,102.96259 c -0.0678,-0.0678 -0.0703,-0.69348 -0.005,-1.3904 l 0.11777,-1.26712 -0.86758,-0.991782 c -0.47717,-0.545469 -0.86758,-1.088455 -0.86758,-1.206631 0,-0.118176 0.39158,-0.313462 0.87016,-0.433972 1.38951,-0.349882 1.8839,-0.697018 2.61058,-1.833002 l 0.68241,-1.066773 0.39735,0.515702 c 1.3878,1.801159 1.57983,1.950204 2.83368,2.199431 0.66655,0.132487 1.2119,0.302847 1.2119,0.378576 0,0.07573 -0.41918,0.596334 -0.9315,1.156899 l -0.9315,1.019222 0.11902,1.5435 0.11903,1.54351 -0.43102,-0.1368 c -0.23706,-0.0752 -0.84722,-0.32963 -1.35592,-0.56531 l -0.9249,-0.42852 -1.09516,0.54337 c -1.14549,0.56834 -1.34812,0.62321 -1.55123,0.4201 z"
         id="path59222" />
      <path
         style="fill:#ffffff;fill-opacity:0.483485;stroke:#666693;stroke-width:0;stroke-miterlimit:4;stroke-dasharray:none;stroke-opacity:1"
         d="m 122.88123,102.90686 c -0.0608,-0.0984 -0.0547,-0.72465 0.0136,-1.39157 l 0.12424,-1.21258 -0.86655,-0.990592 c -0.4766,-0.544831 -0.86655,-1.083954 -0.86655,-1.198058 0,-0.114101 0.35781,-0.309274 0.79513,-0.43371 1.56595,-0.44559 1.84672,-0.635159 2.61386,-1.764816 l 0.76625,-1.128358 0.39131,0.520539 c 1.15277,1.533498 1.68986,1.938983 2.87788,2.172711 0.63891,0.125698 1.16165,0.294991 1.16165,0.376211 0,0.08122 -0.41413,0.600797 -0.9203,1.154621 l -0.92029,1.006952 0.10661,1.55539 0.10661,1.55538 -0.42981,-0.13641 c -0.23639,-0.075 -0.84557,-0.32905 -1.35373,-0.56448 l -0.92392,-0.42806 -1.03209,0.54292 c -1.09048,0.57362 -1.46329,0.65615 -1.6439,0.36391 z"
         id="path59261" />
      <path
         style="fill:#ffffff;fill-opacity:0.483485;stroke:#666693;stroke-width:0;stroke-miterlimit:4;stroke-dasharray:none;stroke-opacity:1"
         d="m 122.88123,102.90686 c -0.0608,-0.0984 -0.0547,-0.72465 0.0136,-1.39157 l 0.12424,-1.21258 -0.86655,-0.990592 c -0.4766,-0.544831 -0.86655,-1.094034 -0.86655,-1.22046 0,-0.126426 0.35781,-0.321236 0.79513,-0.432914 1.47263,-0.376063 1.78975,-0.588023 2.59298,-1.733105 l 0.8004,-1.141048 0.47821,0.631725 c 1.13216,1.495581 1.58086,1.828644 2.78182,2.064916 0.63665,0.125254 1.15754,0.30601 1.15754,0.40168 0,0.09567 -0.40998,0.610905 -0.91107,1.144966 l -0.91106,0.97102 0.0949,1.572012 c 0.10783,1.78703 0.21498,1.72332 -1.58026,0.93951 l -0.96892,-0.42304 -1.11245,0.49924 c -1.21138,0.54364 -1.45422,0.59159 -1.62192,0.32024 z"
         id="path59300" />
      <path
         style="fill:#ffffff;fill-opacity:0.483485;stroke:#666693;stroke-width:0;stroke-miterlimit:4;stroke-dasharray:none;stroke-opacity:1"
         d="m 122.87295,102.89346 c -0.0654,-0.10582 -0.0609,-0.7339 0.01,-1.39574 l 0.12887,-1.20335 -0.8629,-0.986422 c -0.47459,-0.542537 -0.8629,-1.084911 -0.8629,-1.205278 0,-0.12037 0.57599,-0.393803 1.27997,-0.607632 1.20912,-0.367257 1.32506,-0.453043 2.09426,-1.549614 l 0.81428,-1.160833 0.47821,0.631725 c 1.13216,1.495581 1.58086,1.828644 2.78182,2.064916 0.63665,0.125254 1.15754,0.30008 1.15754,0.388501 0,0.08842 -0.40781,0.61109 -0.90626,1.161485 l -0.90625,1.000722 0.09,1.5555 c 0.10242,1.76926 0.2111,1.70702 -1.60038,0.91651 l -0.98423,-0.4295 -1.03112,0.5057 c -1.10964,0.54422 -1.49393,0.61585 -1.68091,0.31331 z"
         id="path59339" />
      <path
         style="fill:#ffffff;fill-opacity:0.483485;stroke:#666693;stroke-width:0;stroke-miterlimit:4;stroke-dasharray:none;stroke-opacity:1"
         d="m 122.87295,102.89346 c -0.0654,-0.10582 -0.0609,-0.7339 0.01,-1.39574 l 0.12887,-1.20335 -0.8629,-0.986422 c -0.47459,-0.542537 -0.8629,-1.084911 -0.8629,-1.205278 0,-0.12037 0.57599,-0.393803 1.27997,-0.607632 1.20912,-0.367257 1.32506,-0.453043 2.09426,-1.549614 l 0.81428,-1.160833 0.47821,0.631725 c 1.11642,1.474787 1.55611,1.79774 2.77006,2.034624 0.64311,0.125495 1.1693,0.307235 1.1693,0.403866 0,0.09663 -0.40781,0.626017 -0.90626,1.176412 l -0.90625,1.000722 0.09,1.5555 c 0.10242,1.76926 0.2111,1.70702 -1.60038,0.91651 l -0.98423,-0.4295 -1.03112,0.5057 c -1.10964,0.54422 -1.49393,0.61585 -1.68091,0.31331 z"
         id="path59378" />
      <path
         style="fill:#ffffff;fill-opacity:0.483485;stroke:#666693;stroke-width:0;stroke-miterlimit:4;stroke-dasharray:none;stroke-opacity:1"
         d="m 104.45127,97.343131 c 0.002,-0.08281 0.13006,-0.908278 0.28503,-1.834367 l 0.28176,-1.683798 -1.22807,-1.174882 c -0.67544,-0.646184 -1.18444,-1.245463 -1.13113,-1.331733 0.0533,-0.08627 0.54083,-0.212979 1.08336,-0.28158 2.30865,-0.291923 2.15257,-0.192617 3.00543,-1.91226 0.42744,-0.861859 0.82412,-1.567016 0.88152,-1.567016 0.0574,0 0.41776,0.633349 0.8008,1.407443 0.77682,1.569932 0.91908,1.667891 2.82224,1.943367 0.70681,0.102307 1.33352,0.234429 1.39269,0.293606 0.0592,0.05917 -0.42831,0.648303 -1.08331,1.309174 l -1.1909,1.201584 0.3127,1.750711 c 0.17199,0.96289 0.31271,1.809853 0.31271,1.88214 0,0.07229 -0.74516,-0.242814 -1.65592,-0.700225 l -1.65593,-0.831657 -1.61813,0.840031 c -0.88996,0.462018 -1.61665,0.772276 -1.61485,0.689462 z"
         id="path59417" />
      <path
         style="fill:#ffffff;fill-opacity:0.483485;stroke:#666693;stroke-width:0;stroke-miterlimit:4;stroke-dasharray:none;stroke-opacity:1"
         d="m 104.70402,96.397436 c 0.0648,-0.385871 0.17224,-1.148647 0.23865,-1.695056 l 0.12076,-0.993471 -1.1764,-1.14401 c -1.32137,-1.284997 -1.31935,-1.290556 0.56097,-1.544125 0.56594,-0.07632 1.17691,-0.21654 1.35771,-0.311599 0.1808,-0.09506 0.62385,-0.758886 0.98457,-1.475169 0.36071,-0.716283 0.73776,-1.302332 0.83789,-1.302332 0.10012,0 0.43617,0.503425 0.74677,1.118724 0.67058,1.32841 1.06974,1.624174 2.54215,1.883641 1.77101,0.312084 1.75644,0.266369 0.49168,1.542468 l -1.1524,1.162745 0.30155,1.64229 c 0.16585,0.903261 0.24621,1.697638 0.17856,1.765284 -0.0677,0.06765 -0.78827,-0.201363 -1.60138,-0.597802 l -1.47839,-0.720796 -1.30431,0.685395 c -1.66512,0.874998 -1.79791,0.873694 -1.64838,-0.01619 z"
         id="path59456" />
      <path
         style="fill:#ffffff;fill-opacity:0.483485;stroke:#666693;stroke-width:0;stroke-miterlimit:4;stroke-dasharray:none;stroke-opacity:1"
         d="m 104.83333,96.303892 c 0.006,-0.334423 0.0828,-1.028988 0.17038,-1.543481 l 0.15924,-0.935445 -1.01229,-1.034412 c -0.55675,-0.568929 -1.01228,-1.128083 -1.01228,-1.242566 0,-0.226861 0.36636,-0.340325 1.73811,-0.5383 0.97523,-0.140747 1.3942,-0.544795 2.17318,-2.095799 0.21964,-0.437319 0.47649,-0.795128 0.57077,-0.795128 0.0943,0 0.40827,0.439629 0.69778,0.97695 0.62354,1.157322 1.41154,1.737275 2.6033,1.915991 1.5054,0.225748 1.50974,0.243403 0.34832,1.417066 l -1.06648,1.077724 0.23954,1.610096 c 0.13175,0.885552 0.18701,1.662631 0.1228,1.72684 -0.0642,0.06421 -0.73533,-0.17702 -1.49139,-0.536067 l -1.37464,-0.652814 -1.20489,0.619614 c -1.52578,0.784635 -1.67535,0.787313 -1.66145,0.02973 z"
         id="path59495" />
      <path
         style="fill:#ffffff;fill-opacity:0.483485;stroke:#666693;stroke-width:0;stroke-miterlimit:4;stroke-dasharray:none;stroke-opacity:1"
         d="m 104.9502,96.584525 c -0.0446,-0.07717 -0.0137,-0.603361 0.0688,-1.169305 0.0825,-0.565943 0.15614,-1.171522 0.16365,-1.345729 0.008,-0.174207 -0.45223,-0.819954 -1.02165,-1.434991 -0.56942,-0.61504 -0.96932,-1.158965 -0.88867,-1.208725 0.0806,-0.04976 0.64488,-0.182528 1.25384,-0.29504 1.28906,-0.238165 1.63811,-0.506756 2.39467,-1.842669 0.30594,-0.540219 0.6244,-0.982216 0.7077,-0.982216 0.0833,0 0.36987,0.372698 0.63682,0.828218 0.73077,1.246965 1.36882,1.663692 3.15164,2.058418 0.28297,0.06265 0.5145,0.179692 0.5145,0.260091 0,0.0804 -0.4041,0.60498 -0.89799,1.165738 -0.84942,0.964428 -0.89048,1.060032 -0.75913,1.767917 0.1774,0.956141 0.1981,2.33861 0.035,2.33861 -0.069,0 -0.68874,-0.259665 -1.37727,-0.57703 l -1.25188,-0.577027 -1.14309,0.577027 c -1.18904,0.600226 -1.45078,0.672253 -1.587,0.436713 z"
         id="path59534" />
      <path
         style="fill:#ffffff;fill-opacity:0.483485;stroke:#666693;stroke-width:0;stroke-miterlimit:4;stroke-dasharray:none;stroke-opacity:1"
         d="m 105.07588,95.280995 0.12404,-1.487287 -0.93976,-1.073907 c -0.51686,-0.590647 -0.89857,-1.140539 -0.84823,-1.22198 0.0503,-0.08144 0.59401,-0.246936 1.20816,-0.367763 1.20283,-0.236644 1.64471,-0.608103 2.46985,-2.076238 0.23121,-0.411383 0.47357,-0.74797 0.53857,-0.74797 0.065,0 0.30431,0.331161 0.53179,0.735912 0.58099,1.033735 1.37898,1.64364 2.61438,1.998171 0.58483,0.16783 1.09434,0.33288 1.13226,0.366773 0.0379,0.03389 -0.32768,0.525878 -0.81245,1.093298 l -0.88138,1.031677 0.13299,1.59658 c 0.0731,0.878118 0.0817,1.596581 0.019,1.596581 -0.0627,0 -0.69376,-0.259223 -1.40234,-0.576051 l -1.28831,-0.576051 -0.91163,0.458277 c -0.50139,0.252053 -1.11397,0.521049 -1.36128,0.59777 l -0.44966,0.139494 z"
         id="path59573" />
      <path
         style="fill:#ffffff;fill-opacity:0.483485;stroke:#666693;stroke-width:0;stroke-miterlimit:4;stroke-dasharray:none;stroke-opacity:1"
         d="m 105.08671,95.274904 0.12577,-1.449938 -0.93608,-1.105646 c -0.51484,-0.608108 -0.89937,-1.165032 -0.85451,-1.237612 0.0448,-0.07258 0.58405,-0.230823 1.1982,-0.35165 1.20283,-0.236644 1.64471,-0.608103 2.46985,-2.076238 0.23121,-0.411383 0.47357,-0.74797 0.53857,-0.74797 0.065,0 0.30431,0.331161 0.53179,0.735912 0.57412,1.021517 1.37514,1.64188 2.56761,1.98854 0.5591,0.162536 1.01655,0.383098 1.01655,0.490141 0,0.107039 -0.34435,0.605898 -0.76521,1.108575 l -0.7652,0.913955 0.13252,1.590934 c 0.0729,0.875015 0.0883,1.590935 0.0343,1.590935 -0.054,0 -0.67089,-0.256935 -1.3708,-0.570963 l -1.27257,-0.570963 -1.23872,0.570963 c -0.68129,0.314028 -1.30601,0.570963 -1.38827,0.570963 -0.0822,0 -0.093,-0.652473 -0.0238,-1.449938 z"
         id="path59612" />
      <path
         style="fill:#ffffff;fill-opacity:0.483485;stroke:#666693;stroke-width:0;stroke-miterlimit:4;stroke-dasharray:none;stroke-opacity:1"
         d="m 105.06963,95.296623 0.11778,-1.471657 -0.92827,-1.115878 c -0.51055,-0.613732 -0.86634,-1.170569 -0.79065,-1.237411 0.0757,-0.06684 0.55856,-0.222657 1.07306,-0.346252 1.28121,-0.307779 1.65224,-0.587526 2.36931,-1.786377 0.33989,-0.568259 0.667,-1.033198 0.72691,-1.033198 0.0599,0 0.29505,0.331161 0.52253,0.735912 0.57412,1.021517 1.37514,1.64188 2.56761,1.98854 0.5591,0.162536 1.01655,0.389363 1.01655,0.504063 0,0.114699 -0.34121,0.613196 -0.75824,1.107768 l -0.75823,0.899221 0.12915,1.591744 c 0.071,0.875458 0.0762,1.591744 0.0115,1.591744 -0.0647,0 -0.69737,-0.259223 -1.40594,-0.576051 l -1.28831,-0.576051 -0.91163,0.458277 c -0.50139,0.252053 -1.11397,0.521049 -1.36129,0.59777 l -0.44966,0.139494 z"
         id="path59651" />
      <path
         style="fill:#ffffff;fill-opacity:0.483485;stroke:#666693;stroke-width:0;stroke-miterlimit:4;stroke-dasharray:none;stroke-opacity:1"
         d="m 105.0849,95.295756 0.12758,-1.47079 -0.93608,-1.105646 c -0.51484,-0.608108 -0.89536,-1.171525 -0.8456,-1.25204 0.0498,-0.08051 0.45867,-0.201605 0.90868,-0.269089 1.18042,-0.177015 1.85689,-0.664597 2.56531,-1.849007 0.34323,-0.573833 0.67307,-1.043334 0.73298,-1.043334 0.0599,0 0.29505,0.331161 0.52253,0.735912 0.57412,1.021517 1.37514,1.64188 2.56761,1.98854 0.5591,0.162536 1.01655,0.389363 1.01655,0.504063 0,0.114699 -0.34121,0.613196 -0.75824,1.107768 l -0.75823,0.899221 0.12915,1.591744 c 0.071,0.875458 0.0762,1.591744 0.0115,1.591744 -0.0647,0 -0.69737,-0.259223 -1.40594,-0.576051 l -1.28831,-0.576051 -0.91163,0.458277 c -0.50139,0.252053 -1.11274,0.520658 -1.35855,0.596902 l -0.44693,0.138626 z"
         id="path59690" />
      <path
         style="fill:#ffffff;fill-opacity:0.483485;stroke:#666693;stroke-width:0;stroke-miterlimit:4;stroke-dasharray:none;stroke-opacity:1"
         d="m 105.06439,95.274904 0.11059,-1.449938 -0.92206,-1.115878 c -0.50712,-0.613732 -0.86012,-1.170569 -0.78443,-1.237411 0.0757,-0.06684 0.55856,-0.222657 1.07306,-0.346252 1.28121,-0.307779 1.65224,-0.587526 2.36931,-1.786377 0.33989,-0.568259 0.66145,-1.033047 0.71458,-1.032862 0.0531,1.83e-4 0.33583,0.378979 0.6282,0.841767 0.69276,1.096536 1.23616,1.50632 2.47508,1.866487 0.55866,0.162404 1.01574,0.39275 1.01574,0.511876 0,0.119126 -0.34121,0.621245 -0.75824,1.115817 l -0.75823,0.899221 0.12915,1.591744 c 0.071,0.875458 0.0762,1.591744 0.0115,1.591744 -0.0647,0 -0.69713,-0.259117 -1.40541,-0.575816 l -1.28779,-0.575812 -1.14068,0.575812 c -0.62737,0.316699 -1.23975,0.575816 -1.36083,0.575816 -0.15939,0 -0.18963,-0.400209 -0.10957,-1.449938 z"
         id="path59729" />
      <path
         style="fill:#ffffff;fill-opacity:0.483485;stroke:#666693;stroke-width:0;stroke-miterlimit:4;stroke-dasharray:none;stroke-opacity:1"
         d="m 84.990785,103.52213 c 0,-0.27454 0.0944,-1.04107 0.20971,-1.7034 l 0.2097,-1.20423 -1.33595,-1.344932 -1.33595,-1.344926 1.49926,-0.218519 c 0.82459,-0.120187 1.66892,-0.309316 1.87627,-0.420291 0.20736,-0.110971 0.72358,-0.891055 1.14716,-1.73352 l 0.77015,-1.53175 0.80847,1.608934 c 0.44466,0.884912 0.92864,1.655045 1.07551,1.711404 0.14687,0.05636 0.95115,0.162147 1.7873,0.235085 0.83615,0.07294 1.52027,0.171262 1.52027,0.218501 0,0.04724 -0.50514,0.645573 -1.12253,1.329632 -1.23219,1.365252 -1.27995,1.544752 -0.92379,3.471442 0.10932,0.59133 0.17184,1.15588 0.13895,1.25456 -0.0329,0.0987 -0.77481,-0.1677 -1.64869,-0.59195 l -1.58888,-0.77138 -1.42636,0.76726 c -0.78449,0.42199 -1.47906,0.76725 -1.54348,0.76725 -0.0644,0 -0.11712,-0.22463 -0.11712,-0.49917 z"
         id="path59768" />
      <path
         style="fill:#ffffff;fill-opacity:0.483485;stroke:#666693;stroke-width:0;stroke-miterlimit:4;stroke-dasharray:none;stroke-opacity:1"
         d="m 85.117095,103.69389 c -0.088,-0.14893 0.18557,-2.39917 0.34324,-2.82369 0.0521,-0.1402 -0.45818,-0.82246 -1.1545,-1.543732 -0.68629,-0.710877 -1.21284,-1.318405 -1.1701,-1.350065 0.0427,-0.03166 0.70551,-0.160552 1.47282,-0.28643 0.76731,-0.125876 1.53926,-0.359315 1.71543,-0.518755 0.17618,-0.159438 0.63215,-0.883293 1.01327,-1.608567 l 0.69295,-1.31868 0.70109,1.332346 c 0.3856,0.73279 0.80141,1.453221 0.92402,1.60096 0.13019,0.156868 0.74348,0.317791 1.4742,0.38682 2.04622,0.1933 2.04937,0.199155 0.85452,1.592891 l -1.04253,1.216082 0.11533,1.72986 0.11533,1.72986 -1.07949,-0.48943 c -2.17202,-0.98476 -1.96951,-0.97256 -3.39191,-0.2043 -1.37538,0.74288 -1.45596,0.77111 -1.58367,0.55483 z"
         id="path59807" />
      <path
         style="fill:#ffffff;fill-opacity:0.483485;stroke:#666693;stroke-width:0;stroke-miterlimit:4;stroke-dasharray:none;stroke-opacity:1"
         d="m 85.251875,102.57918 c 0.069,-0.58737 0.17053,-1.24731 0.22555,-1.46655 0.0742,-0.29581 -0.17383,-0.71546 -0.96196,-1.627292 -0.5841,-0.675778 -1.05643,-1.297999 -1.04962,-1.38271 0.007,-0.08472 0.57392,-0.257662 1.26025,-0.384334 1.47319,-0.271894 1.73164,-0.476184 2.62631,-2.076011 l 0.67736,-1.211236 0.72851,1.313511 c 0.40067,0.722431 0.84091,1.406805 0.9783,1.52083 0.1374,0.114025 0.66226,0.254958 1.16638,0.313185 1.41488,0.163422 1.75846,0.258392 1.75846,0.486055 0,0.115567 -0.38715,0.663292 -0.86034,1.21716 l -0.86034,1.007042 0.0652,1.67924 c 0.0359,0.92358 0.0372,1.6792 0.003,1.67915 -0.0342,-5e-5 -0.63764,-0.25267 -1.34097,-0.56136 -0.70334,-0.3087 -1.41442,-0.56127 -1.58018,-0.56127 -0.16576,0 -0.80172,0.25257 -1.41324,0.56127 -1.53376,0.77423 -1.57167,0.76073 -1.42271,-0.50668 z"
         id="path59846" />
      <path
         style="fill:#ffffff;fill-opacity:0.483485;stroke:#666693;stroke-width:0;stroke-miterlimit:4;stroke-dasharray:none;stroke-opacity:1"
         d="m 85.251835,103.38292 c -0.0549,-0.143 -0.01,-0.74685 0.10022,-1.34188 0.11,-0.59503 0.19999,-1.1399 0.19999,-1.21082 0,-0.0709 -0.46907,-0.7012 -1.04239,-1.400642 -1.16546,-1.421838 -1.16761,-1.414559 0.52127,-1.760907 1.20079,-0.246253 1.70128,-0.705765 2.51265,-2.306918 l 0.47409,-0.935572 0.71999,1.303859 c 0.396,0.717121 0.83335,1.397937 0.9719,1.512922 0.20176,0.167442 2.20406,0.596879 2.81155,0.602999 0.30055,0.003 0.10717,0.381973 -0.70159,1.374807 l -0.8419,1.033522 v 1.67896 1.67896 l -1.26284,-0.53875 c -1.51456,-0.64613 -1.71709,-0.6588 -2.67984,-0.16764 -1.31238,0.66953 -1.67231,0.76583 -1.7831,0.4771 z"
         id="path59885" />
      <path
         style="fill:#ffffff;fill-opacity:0.483485;stroke:#666693;stroke-width:0;stroke-miterlimit:4;stroke-dasharray:none;stroke-opacity:1"
         d="m 89.668005,103.05144 c -1.5027,-0.63628 -1.6608,-0.63961 -2.80634,-0.0591 -0.50765,0.25725 -1.10355,0.46772 -1.32422,0.46772 -0.34885,0 -0.3879,-0.0794 -0.29921,-0.60803 0.374,-2.22939 0.41137,-2.02856 -0.61677,-3.314752 -0.5231,-0.65439 -0.92242,-1.275786 -0.88739,-1.380889 0.035,-0.1051 0.56046,-0.303913 1.16762,-0.441806 1.2926,-0.293563 1.74713,-0.67005 2.46293,-2.04003 0.28932,-0.553723 0.58114,-1.006968 0.64849,-1.007214 0.0674,-2.43e-4 0.39289,0.483648 0.72342,1.075317 0.89246,1.597576 1.00814,1.685563 2.54126,1.932882 0.76099,0.122761 1.38362,0.269552 1.38362,0.326205 0,0.05665 -0.37554,0.581014 -0.83454,1.165245 -0.83052,1.057122 -0.83481,1.070302 -0.88867,2.730822 l -0.0541,1.66858 z"
         id="path59924" />
      <path
         style="fill:#ffffff;fill-opacity:0.483485;stroke:#666693;stroke-width:0;stroke-miterlimit:4;stroke-dasharray:none;stroke-opacity:1"
         d="m 89.668005,103.06393 c -1.50174,-0.64845 -1.66004,-0.65249 -2.80634,-0.0716 -1.01492,0.51431 -1.68379,0.60227 -1.68379,0.22145 0,-0.13545 0.09,-0.73318 0.20002,-1.32828 l 0.20002,-1.08202 -0.87787,-1.117392 c -0.48284,-0.61457 -0.88856,-1.248105 -0.90161,-1.407858 -0.0166,-0.203758 0.32651,-0.387612 1.14962,-0.615947 1.39887,-0.388048 1.71736,-0.649552 2.41337,-1.981586 0.29108,-0.557062 0.59714,-0.990426 0.68014,-0.963025 0.083,0.0274 0.46509,0.593195 0.84909,1.257323 0.75637,1.308145 1.1522,1.552472 2.88209,1.778969 0.48877,0.064 0.88867,0.187669 0.88867,0.27483 0,0.08716 -0.37556,0.619522 -0.83459,1.183024 l -0.83459,1.024552 -0.0541,1.67634 -0.0541,1.67634 z"
         id="path59963" />
      <path
         style="fill:#ffffff;fill-opacity:0.483485;stroke:#666693;stroke-width:0;stroke-miterlimit:4;stroke-dasharray:none;stroke-opacity:1"
         d="m 89.668005,103.05144 c -1.5027,-0.63628 -1.6608,-0.63961 -2.80634,-0.0591 -0.50765,0.25725 -1.10355,0.46772 -1.32422,0.46772 -0.34885,0 -0.3879,-0.0794 -0.29921,-0.60803 0.37168,-2.21556 0.40819,-2.01938 -0.61232,-3.290962 -0.51962,-0.64745 -0.94475,-1.247596 -0.94475,-1.333657 0,-0.08606 0.5909,-0.335954 1.31311,-0.55532 1.10225,-0.334799 1.39854,-0.516766 1.84504,-1.133137 0.29255,-0.403857 0.63927,-0.99346 0.77047,-1.310224 0.13121,-0.316765 0.31103,-0.551717 0.39961,-0.522113 0.0886,0.0296 0.47722,0.597662 0.86365,1.262353 0.76128,1.309434 1.16483,1.557856 2.8997,1.785004 0.48877,0.064 0.88867,0.185716 0.88867,0.270489 0,0.08477 -0.37547,0.610219 -0.83439,1.167655 l -0.83439,1.013532 -0.0543,1.68037 -0.0543,1.68037 z"
         id="path60002" />
      <path
         style="fill:#ffffff;fill-opacity:0.483485;stroke:#666693;stroke-width:0;stroke-miterlimit:4;stroke-dasharray:none;stroke-opacity:1"
         d="m 89.509145,103.02269 -1.37494,-0.55669 -0.96367,0.42621 c -0.53002,0.23441 -1.1952,0.46763 -1.47817,0.51825 -0.58136,0.104 -0.59756,0.0299 -0.33699,-1.54068 0.17512,-1.05556 0.10601,-1.24259 -0.95536,-2.585332 -0.39537,-0.500172 -0.71885,-0.982475 -0.71885,-1.071775 0,-0.0893 0.58501,-0.33659 1.30002,-0.549532 1.38571,-0.412681 1.6689,-0.658976 2.44946,-2.130356 0.25265,-0.476255 0.51306,-0.86592 0.57869,-0.86592 0.0656,0 0.46552,0.582753 0.88866,1.295003 0.8262,1.390698 1.07391,1.544794 2.87475,1.788279 0.48877,0.06608 0.88867,0.195908 0.88867,0.288496 0,0.09259 -0.37562,0.629516 -0.83472,1.193165 -0.83345,1.023252 -0.83481,1.027372 -0.88868,2.686202 l -0.0539,1.66138 z"
         id="path60041" />
      <path
         style="fill:#000000;fill-opacity:0.483485;stroke:#666693;stroke-width:0;stroke-miterlimit:4;stroke-dasharray:none;stroke-opacity:1"
         d="m 103.01157,204.63451 c -5.983767,-4.44663 -9.522645,-7.54786 -14.755455,-12.93063 -9.70818,-9.98642 -17.54125,-21.30465 -23.78132,-34.36231 -2.02672,-4.24101 -5.39579,-11.97805 -5.39579,-12.39136 0,-0.079 2.4415,-0.14358 5.42557,-0.14358 3.63135,0 5.42557,0.13347 5.42557,0.40361 0,0.72304 3.09223,7.07994 3.44395,7.07994 0.18809,0 0.24815,0.15183 0.13346,0.3374 -0.24271,0.39272 1.87634,4.56783 2.52906,4.98293 0.2429,0.15448 0.30013,0.28345 0.12718,0.2866 -0.84468,0.0154 5.86743,10.85576 10.54324,17.02781 3.00175,3.96231 17.777195,19.00086 19.751195,20.10292 1.11873,0.62457 1.18502,0.61778 2.34817,-0.24037 0.65832,-0.48569 3.15366,-2.62709 5.54519,-4.75866 8.68535,-7.74122 16.74126,-17.69086 22.83775,-28.20625 1.65633,-2.85689 6.16628,-11.89663 7.50922,-15.0515 l 0.83621,-1.96443 h 5.22808 c 3.08886,0 5.22808,0.14691 5.22808,0.35903 0,0.67856 -3.83035,9.18847 -6.57516,14.60806 -8.20114,16.19309 -18.17925,29.01153 -30.84258,39.62214 -4.5686,3.82804 -10.54817,8.27256 -11.12973,8.27256 -0.19206,0 -2.18641,-1.36526 -4.43189,-3.03391 z m 8.13922,-3.0115 c 12.84415,-9.48534 24.76411,-23.24114 33.08093,-38.17585 2.7058,-4.85888 6.72568,-13.15881 7.10485,-14.66952 0.24211,-0.96463 0.21827,-0.97759 -1.79853,-0.97759 h -2.04388 l -1.63092,3.60979 c -7.81675,17.30117 -20.32719,33.68259 -34.17052,44.74358 l -4.07414,3.25529 -1.68413,-1.20217 c -3.39559,-2.42385 -9.868095,-8.24226 -13.519875,-12.15357 -9.24273,-9.8996 -15.43164,-19.03489 -21.99399,-32.46471 l -2.82834,-5.78821 h -2.03677 c -1.9296,0 -2.0249,0.0443 -1.81117,0.8419 0.47727,1.78103 8.18005,16.75563 10.63414,20.6733 7.54003,12.0368 18.00608,23.59274 28.874115,31.88097 1.94373,1.48233 3.81413,2.70308 4.15646,2.71279 0.34232,0.01 2.02612,-1.019 3.74177,-2.286 z"
         id="path60193" />
    </g>
  </g>
</svg>
